<svg width="300" height="35" viewBox="0 0 300 35" fill="none" xmlns="http://www.w3.org/2000/svg">
<g clip-path="url(#clip0_79_1860)">
<path d="M69.5529 9.92567V10.7791C69.5325 12.0761 68.4632 13.1245 67.1487 13.1245H58.9551C58.3626 13.1245 57.879 13.1715 57.4908 13.2723C57.1026 13.3664 56.7961 13.5344 56.5713 13.7629C56.3466 13.9914 56.1831 14.3072 56.0809 14.6902C55.9856 15.08 55.9311 15.5706 55.9311 16.1687V19.3473C55.9311 19.9454 55.9788 20.4427 56.0809 20.8392C56.1763 21.2357 56.3398 21.5515 56.5713 21.78C56.7961 22.0085 57.1026 22.1765 57.4908 22.2706C57.879 22.3646 58.3626 22.4184 58.9551 22.4184H67.1895C68.4972 22.4184 69.5529 23.46 69.5529 24.7503V25.597H58.8189C57.6679 25.597 56.6939 25.4962 55.8902 25.2812C55.0866 25.0729 54.4327 24.7301 53.9287 24.2597C53.4247 23.7893 53.0501 23.1778 52.8185 22.4251C52.587 21.6725 52.4644 20.7585 52.4644 19.6833V15.8327C52.4644 14.7574 52.5801 13.8502 52.8185 13.0976C53.0501 12.3516 53.4247 11.7401 53.9287 11.2697C54.4327 10.7993 55.0866 10.4566 55.8902 10.2415C56.6939 10.0265 57.6679 9.91895 58.8189 9.91895H69.5529V9.92567Z" fill="#26203D"/>
<path d="M85.1635 9.92566C86.3146 9.92566 87.2953 10.0332 88.1058 10.2482C88.9163 10.4633 89.5702 10.806 90.081 11.2764C90.585 11.7468 90.9528 12.3584 91.1844 13.1043C91.4091 13.8502 91.5249 14.7642 91.5249 15.8394V19.69C91.5249 20.7652 91.4091 21.6792 91.1844 22.4318C90.9596 23.1845 90.5918 23.796 90.081 24.2664C89.577 24.7369 88.9163 25.0796 88.1058 25.2879C87.2953 25.4962 86.3146 25.6037 85.1635 25.6037H78.1483C76.9972 25.6037 76.0233 25.5029 75.2196 25.2879C74.4159 25.0796 73.762 24.7369 73.258 24.2664C72.754 23.796 72.3794 23.1845 72.1479 22.4318C71.9163 21.6792 71.7937 20.7652 71.7937 19.69V15.8394C71.7937 14.7642 71.9095 13.8569 72.1479 13.1043C72.3794 12.3584 72.754 11.7468 73.258 11.2764C73.762 10.806 74.4159 10.4633 75.2196 10.2482C76.0233 10.0332 76.9972 9.92566 78.1483 9.92566H85.1635ZM75.2741 19.4414C75.2741 20.026 75.3217 20.5099 75.4239 20.9064C75.5193 21.3029 75.6827 21.6187 75.9143 21.8472C76.1391 22.0757 76.4455 22.2437 76.8338 22.3378C77.222 22.4318 77.7056 22.4856 78.2981 22.4856H85.0409C85.6335 22.4856 86.117 22.4386 86.5053 22.3378C86.8935 22.2437 87.2 22.0757 87.4247 21.8472C87.6495 21.6187 87.813 21.3029 87.9151 20.9064C88.0105 20.5099 88.065 20.0193 88.065 19.4414V16.0813C88.065 15.4967 88.0173 15.0128 87.9151 14.6163C87.8198 14.2198 87.6563 13.9107 87.4247 13.6755C87.2 13.447 86.8935 13.279 86.5053 13.1849C86.117 13.0908 85.6335 13.0371 85.0409 13.0371H78.2981C77.7056 13.0371 77.222 13.0841 76.8338 13.1849C76.4455 13.279 76.1391 13.447 75.9143 13.6755C75.6895 13.904 75.5261 14.2198 75.4239 14.6163C75.3286 15.0128 75.2741 15.5034 75.2741 16.0813V19.4414Z" fill="#26203D"/>
<path d="M158.966 9.92566C159.327 9.92566 159.634 9.9391 159.872 9.9727C160.111 10.0063 160.329 10.0668 160.506 10.1609C160.69 10.2549 160.86 10.3893 161.03 10.5641C161.194 10.7388 161.384 10.9606 161.595 11.2495L170.041 22.1765C170.102 22.284 170.198 22.331 170.334 22.331H170.538C170.661 22.331 170.722 22.2571 170.722 22.1093V11.6393C170.722 10.6918 171.499 9.92566 172.459 9.92566H174.107V23.2719C174.107 24.1858 173.944 24.7973 173.61 25.1199C173.276 25.4425 172.765 25.6037 172.064 25.6037H170.109C169.762 25.6037 169.469 25.5903 169.237 25.5567C169.006 25.5298 168.795 25.4693 168.611 25.3753C168.427 25.2879 168.25 25.1535 168.079 24.9855C167.902 24.8108 167.705 24.5756 167.48 24.2799L159.014 13.3529C158.926 13.2521 158.823 13.1984 158.721 13.1984H158.517C158.394 13.1984 158.333 13.2723 158.333 13.4201V23.8901C158.333 24.8377 157.557 25.6037 156.596 25.6037H154.941L154.928 12.2575C154.928 11.3503 155.091 10.7321 155.425 10.4095C155.759 10.0869 156.269 9.92566 156.971 9.92566H158.966Z" fill="#26203D"/>
<path d="M98.3767 9.92566C98.7377 9.92566 99.0442 9.9391 99.2826 9.9727C99.5209 10.0063 99.7389 10.0668 99.916 10.1609C100.1 10.2549 100.27 10.3893 100.44 10.5641C100.604 10.7388 100.795 10.9606 101.006 11.2495L109.451 22.1765C109.513 22.284 109.608 22.331 109.744 22.331H109.948C110.071 22.331 110.132 22.2571 110.132 22.1093V11.6393C110.132 10.6918 110.909 9.92566 111.869 9.92566H113.517V23.2719C113.517 24.1858 113.354 24.7973 113.02 25.1199C112.686 25.4425 112.176 25.6037 111.474 25.6037H109.519C109.172 25.6037 108.879 25.5903 108.648 25.5567C108.416 25.5298 108.205 25.4693 108.021 25.3753C107.837 25.2879 107.66 25.1535 107.49 24.9855C107.313 24.8108 107.115 24.5756 106.89 24.2799L98.4244 13.3529C98.3358 13.2521 98.2337 13.1984 98.1315 13.1984H97.9272C97.8046 13.1984 97.7433 13.2723 97.7433 13.4201V23.8901C97.7433 24.8377 96.9668 25.6037 96.0065 25.6037H94.3515L94.3378 12.2575C94.3378 11.3503 94.5013 10.7321 94.835 10.4095C95.1688 10.0869 95.6796 9.92566 96.3811 9.92566H98.3767Z" fill="#26203D"/>
<path d="M152.551 9.99293V11.216C152.537 12.2375 151.699 13.0573 150.671 13.064L142.116 13.1044C141.524 13.1044 141.04 13.1514 140.652 13.2522C140.264 13.3463 139.957 13.5143 139.719 13.7428C139.487 13.9713 139.324 14.2871 139.228 14.6836C139.14 15.0801 139.092 15.5706 139.092 16.1486V16.3703H151.018C151.788 16.3703 152.414 16.9886 152.414 17.748C152.414 18.5073 151.788 19.1256 151.018 19.1256H139.092V19.5086C139.092 20.0933 139.14 20.5771 139.228 20.9736C139.317 21.3701 139.48 21.686 139.719 21.9145C139.95 22.1429 140.264 22.3109 140.652 22.405C141.04 22.4991 141.524 22.5529 142.116 22.5529H152.557V23.0434V25.6509L152.033 25.6643H142.048C140.897 25.6643 139.923 25.5635 139.119 25.3485C138.316 25.1401 137.662 24.7974 137.158 24.327C136.654 23.8566 136.279 23.245 136.048 22.4924C135.816 21.7397 135.694 20.8258 135.694 19.7506V15.8999C135.694 14.8247 135.809 13.9175 136.048 13.1648C136.279 12.4189 136.654 11.8074 137.158 11.337C137.662 10.8665 138.316 10.5238 139.119 10.3088C139.923 10.0937 140.897 9.98621 142.048 9.98621H152.557L152.551 9.99293Z" fill="#26203D"/>
<path d="M210.941 9.92566C212.5 9.92566 213.61 10.2348 214.264 10.8463C214.925 11.4579 215.252 12.3852 215.252 13.6217V14.697C215.252 15.9536 214.768 16.9012 213.801 17.5396C214.843 18.1377 215.368 19.0987 215.368 20.4292V21.7262C215.368 22.3243 215.3 22.8619 215.163 23.3391C215.027 23.8162 214.802 24.2261 214.496 24.5621C214.183 24.8981 213.774 25.1535 213.256 25.3349C212.739 25.5164 212.105 25.6037 211.349 25.6037H197.189V9.92566H210.941ZM200.663 16.4442H209.967C210.723 16.4442 211.24 16.33 211.513 16.1082C211.785 15.8864 211.921 15.5571 211.921 15.1203V14.361C211.921 13.8973 211.792 13.5613 211.526 13.3395C211.261 13.1244 210.832 13.0169 210.246 13.0169H200.67V16.4442H200.663ZM200.663 18.8836V22.5125H210.266C210.872 22.5125 211.302 22.405 211.56 22.1899C211.819 21.9749 211.949 21.6254 211.949 21.1483V20.2948C211.949 19.8311 211.806 19.4817 211.526 19.2398C211.247 19.0046 210.729 18.8836 209.973 18.8836H200.67H200.663Z" fill="#26203D"/>
<path d="M231.23 9.92566C232.381 9.92566 233.362 10.0332 234.173 10.2482C234.983 10.4633 235.637 10.806 236.148 11.2764C236.652 11.7468 237.019 12.3584 237.251 13.1043C237.476 13.8502 237.592 14.7642 237.592 15.8394V19.69C237.592 20.7652 237.476 21.6792 237.251 22.4318C237.026 23.1845 236.659 23.796 236.148 24.2664C235.644 24.7369 234.983 25.0796 234.173 25.2879C233.362 25.4962 232.381 25.6037 231.23 25.6037H224.215C223.064 25.6037 222.09 25.5029 221.286 25.2879C220.483 25.0796 219.829 24.7369 219.325 24.2664C218.821 23.796 218.446 23.1845 218.215 22.4318C217.983 21.6792 217.86 20.7652 217.86 19.69V15.8394C217.86 14.7642 217.976 13.8569 218.215 13.1043C218.446 12.3584 218.821 11.7468 219.325 11.2764C219.829 10.806 220.483 10.4633 221.286 10.2482C222.09 10.0332 223.064 9.92566 224.215 9.92566H231.23ZM221.341 19.4414C221.341 20.026 221.388 20.5099 221.491 20.9064C221.586 21.3029 221.749 21.6187 221.981 21.8472C222.206 22.0757 222.512 22.2437 222.9 22.3378C223.289 22.4318 223.772 22.4856 224.365 22.4856H231.108C231.7 22.4856 232.184 22.4386 232.572 22.3378C232.96 22.2437 233.267 22.0757 233.491 21.8472C233.716 21.6187 233.88 21.3029 233.982 20.9064C234.077 20.5099 234.132 20.0193 234.132 19.4414V16.0813C234.132 15.4967 234.084 15.0128 233.982 14.6163C233.886 14.2198 233.723 13.9107 233.491 13.6755C233.267 13.447 232.96 13.279 232.572 13.1849C232.184 13.0908 231.7 13.0371 231.108 13.0371H224.365C223.772 13.0371 223.289 13.0841 222.9 13.1849C222.512 13.2857 222.206 13.447 221.981 13.6755C221.756 13.904 221.593 14.2198 221.491 14.6163C221.395 15.0128 221.341 15.5034 221.341 16.0813V19.4414Z" fill="#26203D"/>
<path d="M253.59 9.92566C254.741 9.92566 255.722 10.0332 256.533 10.2482C257.343 10.4633 257.997 10.806 258.508 11.2764C259.012 11.7468 259.38 12.3584 259.611 13.1043C259.836 13.8502 259.952 14.7642 259.952 15.8394V19.69C259.952 20.7652 259.836 21.6792 259.611 22.4318C259.387 23.1845 259.019 23.796 258.508 24.2664C258.004 24.7369 257.343 25.0796 256.533 25.2879C255.722 25.4962 254.741 25.6037 253.59 25.6037H246.575C245.424 25.6037 244.45 25.5029 243.647 25.2879C242.843 25.0796 242.189 24.7369 241.685 24.2664C241.181 23.796 240.806 23.1845 240.575 22.4318C240.343 21.6792 240.221 20.7652 240.221 19.69V15.8394C240.221 14.7642 240.336 13.8569 240.575 13.1043C240.806 12.3584 241.181 11.7468 241.685 11.2764C242.189 10.806 242.843 10.4633 243.647 10.2482C244.45 10.0332 245.424 9.92566 246.575 9.92566H253.59ZM243.694 19.4414C243.694 20.026 243.742 20.5099 243.844 20.9064C243.939 21.3029 244.103 21.6187 244.334 21.8472C244.559 22.0757 244.866 22.2437 245.254 22.3378C245.642 22.4318 246.126 22.4856 246.718 22.4856H253.461C254.054 22.4856 254.537 22.4386 254.925 22.3378C255.314 22.2437 255.62 22.0757 255.845 21.8472C256.07 21.6187 256.233 21.3029 256.335 20.9064C256.431 20.5099 256.485 20.0193 256.485 19.4414V16.0813C256.485 15.4967 256.437 15.0128 256.335 14.6163C256.24 14.2198 256.076 13.9107 255.845 13.6755C255.62 13.447 255.314 13.279 254.925 13.1849C254.537 13.0908 254.054 13.0371 253.461 13.0371H246.718C246.126 13.0371 245.642 13.0841 245.254 13.1849C244.866 13.2857 244.559 13.447 244.334 13.6755C244.11 13.904 243.946 14.2198 243.844 14.6163C243.749 15.0128 243.694 15.5034 243.694 16.0813V19.4414Z" fill="#26203D"/>
<path d="M266.497 9.92566H278.941C278.988 9.92566 279.022 9.95926 279.022 10.0063V10.7388C279.022 12.0089 277.98 13.0371 276.693 13.0371H267.151C266.715 13.0371 266.402 13.1513 266.218 13.3731C266.034 13.5949 265.945 13.904 265.945 14.2938V15.0531C265.945 15.8864 266.34 16.3098 267.124 16.3098H275.637C276.952 16.3098 277.946 16.6391 278.614 17.3044C279.281 17.9697 279.615 18.9172 279.615 20.1604V21.9547C279.615 23.0434 279.288 23.9237 278.641 24.5957C277.994 25.2677 276.979 25.6037 275.603 25.6037H264.406C263.357 25.5903 262.506 24.757 262.506 23.7221V22.5595C262.506 22.5125 262.54 22.4789 262.588 22.4789L274.943 22.4923C275.378 22.4923 275.692 22.3781 275.876 22.1563C276.06 21.9346 276.148 21.6254 276.148 21.2357V20.315C276.148 19.4817 275.753 19.0583 274.97 19.0583H266.456C265.142 19.0583 264.147 18.729 263.48 18.0638C262.812 17.3985 262.479 16.4509 262.479 15.2077V13.5747C262.479 12.486 262.806 11.6057 263.453 10.9337C264.1 10.2617 265.114 9.92566 266.497 9.92566Z" fill="#26203D"/>
<path d="M134.59 9.89209V11.0076C134.59 12.1769 133.63 13.1312 132.438 13.1312H128.406C127.595 13.1312 126.942 13.7763 126.942 14.576V24.159C126.942 24.9586 126.288 25.6038 125.477 25.6038H124.939C124.129 25.6038 123.475 24.9586 123.475 24.159V14.576C123.475 13.7763 122.821 13.1312 122.011 13.1312H118.557C117.052 13.1312 115.826 11.9283 115.826 10.4364V9.92569C115.826 9.92569 116.003 9.92569 116.351 9.92569L134.597 9.89209H134.59Z" fill="#26203D"/>
<path d="M195.187 9.89209V11.0076C195.187 12.1769 194.227 13.1312 193.035 13.1312H189.003C188.192 13.1312 187.538 13.7763 187.538 14.576V24.159C187.538 24.9586 186.884 25.6038 186.074 25.6038H185.536C184.725 25.6038 184.072 24.9586 184.072 24.159V14.576C184.072 13.7763 183.418 13.1312 182.607 13.1312H179.154C177.649 13.1312 176.423 11.9283 176.423 10.4364V9.92569C176.423 9.92569 176.6 9.92569 176.947 9.92569L195.194 9.89209H195.187Z" fill="#26203D"/>
<path d="M300 9.89209V11.0076C300 12.1769 299.04 13.1312 297.848 13.1312H293.816C293.005 13.1312 292.351 13.7763 292.351 14.576V24.159C292.351 24.9586 291.697 25.6038 290.887 25.6038H290.349C289.538 25.6038 288.885 24.9586 288.885 24.159V14.576C288.885 13.7763 288.231 13.1312 287.42 13.1312H283.967C282.462 13.1312 281.236 11.9283 281.236 10.4364V9.92569C281.236 9.92569 281.413 9.92569 281.76 9.92569L300.007 9.89209H300Z" fill="#26203D"/>
<path d="M26.5693 34.9515H8.86099C6.40906 34.9515 4.20233 33.9771 2.59496 32.3911C0.994392 30.8186 0 28.6278 0 26.2153C0 23.8028 0.987581 21.6187 2.59496 20.0328C3.28967 19.3473 4.10017 18.7761 4.99239 18.346C6.16387 17.7815 7.47156 17.4724 8.86099 17.4724C11.3061 17.4724 13.5197 18.4468 15.1202 20.0328C16.7208 21.612 17.7152 23.8028 17.7152 26.2153C17.7152 28.2784 18.4371 30.1802 19.6563 31.6788C19.8606 31.9274 20.0786 32.1694 20.3033 32.3911C21.9039 33.9704 24.1242 34.9515 26.5693 34.9515Z" fill="url(#paint0_linear_79_1860)"/>
<path d="M35.4235 8.74293V26.2153C35.4235 28.6278 34.4359 30.8119 32.8286 32.3911C31.2348 33.9703 29.0144 34.9515 26.5693 34.9515C24.1242 34.9515 21.9107 33.9771 20.3033 32.3911C20.0717 32.1626 19.8606 31.9274 19.6563 31.6788C18.4371 30.1802 17.7151 28.2851 17.7151 26.2153C17.7151 23.8028 18.7027 21.6187 20.3101 20.0328C21.9107 18.4535 24.131 17.4724 26.5761 17.4724C29.0213 17.4724 31.2348 16.498 32.8354 14.912C32.9375 14.8112 33.0397 14.7104 33.135 14.6029C34.5653 13.0505 35.4303 11.0009 35.4303 8.73621L35.4235 8.74293Z" fill="url(#paint1_linear_79_1860)"/>
<path d="M44.6796 0C39.3943 0 35.4235 3.91784 35.4235 8.74291C35.4235 11.0009 34.5586 13.0572 33.1283 14.6096C33.0329 14.7171 32.9307 14.8246 32.8286 14.9187C31.2348 16.4979 29.0145 17.4791 26.5694 17.4791C24.1242 17.4791 21.9107 16.5047 20.3033 14.9187C18.7028 13.3395 17.7084 11.1554 17.7084 8.74291C17.7084 8.58834 17.7084 8.4405 17.722 8.29266C17.831 6.06157 18.8049 4.04553 20.351 2.56037C22.0061 0.981141 24.3218 0 26.9576 0H44.6727L44.6796 0Z" fill="url(#paint2_linear_79_1860)"/>
<path d="M17.7083 8.74291C17.7083 11.1554 16.7208 13.3395 15.1134 14.9187C13.5128 16.4979 11.2993 17.4791 8.85415 17.4791C7.46473 17.4791 6.15703 17.7882 4.98556 18.3527C4.09333 18.7828 3.28283 19.354 2.58812 20.0395C0.987556 21.6187 -0.00683594 23.8095 -0.00683594 26.222V8.74291C-0.00683594 6.33037 0.980746 4.14633 2.58812 2.56037C4.19549 0.974421 6.40904 0 8.86096 0C11.3129 0 13.5196 0.974421 15.1202 2.56037C16.6254 4.04553 17.5925 6.06157 17.7015 8.29266C17.7015 8.44722 17.7151 8.59506 17.7151 8.74291H17.7083Z" fill="url(#paint3_linear_79_1860)"/>
</g>
<defs>
<linearGradient id="paint0_linear_79_1860" x1="1.49159" y1="11.6057" x2="13.9334" y2="33.4362" gradientUnits="userSpaceOnUse">
<stop offset="0.05" stop-color="#4B1EC9"/>
<stop offset="1" stop-color="#5C93EB"/>
</linearGradient>
<linearGradient id="paint1_linear_79_1860" x1="20.3033" y1="32.3911" x2="39.5885" y2="12.8523" gradientUnits="userSpaceOnUse">
<stop stop-color="#F2D039"/>
<stop offset="0.44" stop-color="#E9A647"/>
</linearGradient>
<linearGradient id="paint2_linear_79_1860" x1="24.1038" y1="-1.12898" x2="51.3381" y2="27.5078" gradientUnits="userSpaceOnUse">
<stop stop-color="#6B00F9"/>
<stop offset="1" stop-color="#D833AC"/>
</linearGradient>
<linearGradient id="paint3_linear_79_1860" x1="1.10334" y1="3.05766" x2="10.7951" y2="20.0647" gradientUnits="userSpaceOnUse">
<stop stop-color="#E69C25"/>
<stop offset="1" stop-color="#DA165A"/>
</linearGradient>
<clipPath id="clip0_79_1860">
<rect width="300" height="34.9515" fill="white"/>
</clipPath>
</defs>
</svg>
